<svg xmlns="http://www.w3.org/2000/svg" viewBox="80 430 128 128" role="img" aria-label="Лидер">
  <rect x="80" y="430" width="128" height="128" rx="18" fill="#6B1F2A"/>
  <path fill="#FFFFFF" fill-rule="nonzero" d="M 167.976562 524.59375 C 169.34375 525.414062 170.105469 526.527344 171.246094 527.4375 C 172.441406 528.390625 177.464844 530.796875 178.957031 531.054688 C 185.976562 532.265625 188.417969 526.132812 187.925781 520.179688 C 187.5 515.039062 183.207031 508.726562 180.03125 504.773438 C 175.316406 498.90625 169.554688 494.898438 167.207031 487.289062 C 165.3125 481.132812 167.703125 477.800781 170.421875 472.75 C 171.941406 469.921875 173.304688 466.59375 172.773438 463.324219 L 171.246094 464.214844 C 171.621094 461.277344 171.871094 457.726562 170.164062 455.179688 C 170.015625 455.179688 169.191406 457.277344 168.574219 457.210938 C 169.035156 453.382812 167.222656 449.167969 164.117188 446.898438 C 165.699219 452.589844 165.523438 458.226562 163.824219 463.859375 C 162.367188 468.695312 160.425781 472.902344 160.671875 478.164062 C 161.351562 492.5 172.828125 497.511719 179.730469 508.128906 C 182.429688 512.277344 185.988281 519.933594 183.578125 524.742188 C 182.925781 526.046875 181.679688 527.273438 180.257812 526.101562 C 178.046875 524.277344 176.074219 516.492188 174.625 513.488281 C 170.765625 505.480469 167.207031 505.007812 159.914062 501.207031 C 155.699219 499.011719 151.738281 496.21875 149.21875 492.101562 L 151.511719 492.480469 C 150.867188 489.824219 148.460938 488.019531 146.292969 486.625 C 146.3125 486.46875 146.425781 486.398438 146.578125 486.398438 C 147.648438 486.398438 149.09375 486.792969 150.046875 486.765625 C 150.21875 486.757812 150.429688 486.738281 150.484375 486.546875 C 150.589844 486.195312 149.523438 483.90625 149.285156 483.441406 C 149.105469 483.089844 148.101562 481.191406 147.757812 481.277344 C 146.246094 483.222656 144.453125 485.101562 142.175781 486.136719 C 141.558594 486.417969 140.679688 486.589844 140.144531 486.882812 C 139.976562 486.976562 139.722656 487.425781 139.535156 487.570312 C 136.640625 489.792969 134.25 489.40625 131.144531 490.515625 C 130.136719 490.875 129.628906 491.628906 129.046875 491.855469 C 126.769531 492.746094 124.808594 492.699219 122.414062 494.136719 C 120.898438 495.046875 120.488281 495.933594 119.363281 496.941406 C 117.710938 498.417969 116.519531 498.71875 115.121094 500.847656 C 112.773438 504.410156 113.695312 510.3125 116.320312 513.554688 C 115.988281 515.042969 115.652344 516.875 115.726562 518.398438 C 115.933594 522.628906 118.390625 526.25 116.246094 530.621094 C 114.371094 534.433594 110.46875 531.867188 108.28125 534.117188 C 107.441406 534.976562 106.117188 537.699219 106.464844 538.867188 C 106.527344 539.089844 106.863281 539.28125 107.011719 539.464844 C 107.308594 539.46875 107.703125 536.992188 108.347656 536.792969 L 107.851562 539.636719 C 107.941406 539.960938 109.253906 540.144531 109.371094 540.050781 C 109.914062 537.878906 112.023438 534.546875 114.523438 534.492188 C 115.613281 534.464844 115.765625 534.585938 116.882812 534.0625 C 122.394531 531.476562 118.722656 525.4375 117.804688 521.289062 C 117.296875 519.007812 117.367188 516.515625 117.800781 514.222656 C 117.957031 513.390625 118.359375 512.515625 118.40625 511.65625 C 117.269531 509.808594 116.183594 508.039062 116.109375 505.796875 C 116.027344 503.417969 117.214844 500.175781 119.488281 499.101562 L 118.21875 501.398438 C 116.757812 505.371094 117.96875 509.5 120.1875 512.921875 C 120.800781 513.871094 121.515625 514.71875 122.226562 515.59375 C 122.097656 515.800781 121.945312 515.550781 121.84375 515.46875 C 121.074219 514.824219 120.386719 513.894531 119.683594 513.167969 L 119.296875 513.109375 C 118.933594 514.613281 118.28125 516.210938 118.152344 517.757812 C 117.695312 523.367188 124.746094 530.371094 117.628906 534.554688 C 116.089844 535.457031 115.730469 534.789062 114.199219 535.066406 C 112.285156 535.417969 110.53125 537.527344 110.085938 539.359375 C 109.78125 540.605469 109.636719 541.519531 111.257812 541.230469 C 111.078125 539.722656 111.769531 538.578125 112.421875 537.304688 C 112.652344 537.269531 112.53125 537.570312 112.496094 537.691406 C 112.304688 538.339844 112 538.988281 111.925781 539.671875 C 111.84375 540.4375 111.636719 542.054688 112.785156 541.742188 L 113.695312 539.214844 L 113.585938 541.996094 C 114.0625 542.085938 114.578125 542.296875 115.042969 542.386719 C 119.511719 543.230469 123.8125 540.882812 128.085938 539.914062 C 128.929688 539.601562 129.761719 536.929688 129.953125 536.054688 C 130.453125 533.828125 129.910156 531.65625 130.253906 529.734375 C 130.355469 529.164062 130.976562 528.199219 131.109375 527.53125 C 131.390625 526.117188 130.988281 523.011719 133.050781 523.117188 C 133.382812 522.886719 133.457031 520.09375 133.414062 519.554688 C 133.230469 517.28125 132.257812 514.996094 131.683594 512.808594 C 134.265625 509.097656 137.355469 504.984375 137.097656 500.210938 C 136.800781 499.910156 136.574219 499.535156 136.300781 499.222656 C 136.144531 499.046875 135.492188 498.761719 135.65625 498.46875 C 136.367188 498.84375 138.289062 499.4375 138.402344 500.308594 C 138.925781 504.285156 134.789062 510.082031 132.5625 513.199219 C 133.078125 515.671875 133.902344 518.101562 133.835938 520.664062 C 135.234375 521.757812 137.1875 522.285156 138.90625 522.789062 C 139.003906 523.179688 138.617188 523.261719 138.40625 523.527344 C 137.335938 524.863281 137.363281 525.269531 138.457031 526.609375 C 139.871094 528.335938 142.6875 530.148438 144.738281 531.027344 C 146.070312 531.597656 148.035156 531.894531 149.1875 532.550781 C 149.375 532.660156 149.359375 532.753906 149.472656 532.910156 C 148.109375 533.429688 146.625 533.101562 145.222656 533.242188 C 144.023438 533.359375 141.957031 533.957031 141.199219 534.945312 C 140.792969 535.480469 139.773438 538.214844 140.113281 538.707031 C 140.285156 538.960938 142.59375 539.726562 142.859375 539.539062 C 143.675781 537.78125 144.589844 535.652344 146.574219 534.976562 C 147.84375 534.542969 149.972656 534.523438 151.324219 534.625 C 152.875 534.742188 154.101562 535.542969 155.636719 534.871094 C 156.386719 534.539062 156.898438 533.777344 157.75 533.542969 C 157.824219 533.285156 157.300781 533.285156 157.140625 533.265625 C 150.128906 532.304688 134.574219 527.253906 142.722656 517.753906 C 147.804688 511.828125 157.4375 510.699219 164.496094 513.304688 L 165.898438 514 C 164.191406 513.675781 162.492188 513.316406 160.75 513.230469 C 157.71875 513.082031 153.941406 513.257812 151.035156 514.09375 C 143.675781 516.214844 137.144531 523.902344 146.289062 529.089844 C 151.878906 532.265625 159.929688 533.847656 166.179688 532.171875 C 166.503906 532.085938 168.230469 531.375 168.316406 531.445312 C 168.554688 531.640625 168.140625 531.722656 168.066406 531.761719 C 167.464844 532.113281 166.816406 532.429688 166.15625 532.65625 C 166.269531 532.917969 169.660156 533.558594 169.972656 534.371094 C 168.070312 533.894531 165.910156 533.0625 163.921875 533.222656 C 162.347656 533.351562 160.265625 533.453125 158.808594 533.96875 C 157.859375 534.304688 156.953125 534.910156 155.964844 535.195312 C 153.972656 535.769531 152.96875 535.089844 151.070312 535.003906 C 149.789062 534.949219 147.234375 535.25 146.144531 535.914062 C 145.003906 536.609375 143.375 539.585938 143.546875 540.996094 C 143.84375 541.28125 145.578125 541.757812 145.757812 541.480469 C 146.019531 540.144531 146.734375 538.363281 147.816406 537.492188 C 148.039062 537.3125 148.449219 536.921875 148.710938 537.109375 C 147.15625 538.179688 146.335938 540.339844 146.222656 542.140625 C 146.371094 542.386719 147.945312 542.707031 148.144531 542.539062 C 148.425781 542.269531 148.285156 541.859375 148.386719 541.496094 C 148.539062 540.9375 148.800781 540.402344 148.964844 539.851562 C 149.183594 539.816406 149.101562 540.152344 149.089844 540.292969 C 149.050781 540.816406 148.535156 542.453125 149.089844 542.714844 C 149.21875 542.777344 150.191406 542.886719 150.429688 542.902344 C 160.136719 543.609375 169.347656 541.730469 178.945312 541.246094 C 179.574219 541.210938 182.195312 541.410156 182.464844 541.070312 C 182.890625 540.53125 182.398438 538.34375 182.167969 537.652344 C 181.757812 536.425781 180.144531 533.5 179.222656 532.636719 C 177.082031 530.621094 173.265625 529.804688 170.875 528.316406 C 169.804688 527.648438 169.15625 526.417969 168.257812 525.589844 C 167.390625 524.792969 166.410156 524.300781 165.390625 523.742188 C 166.175781 523.574219 167.289062 524.183594 167.976562 524.59375 M 163.605469 480.257812 L 163.226562 478.664062 C 162.523438 473.175781 166.066406 469.265625 168.492188 464.835938 L 169.589844 461.796875 C 169.691406 466.617188 166.0625 470.039062 164.625 474.335938 C 163.992188 476.226562 163.628906 478.265625 163.605469 480.257812 M 122.480469 519.789062 C 122.414062 521.859375 121.414062 524.210938 121.460938 526.351562 L 121.082031 524.378906 C 120.988281 523.703125 120.988281 518.308594 122.160156 518.585938 C 122.476562 518.898438 122.496094 519.375 122.480469 519.789062 M 131.066406 520.234375 C 130.40625 521.480469 129.308594 521.914062 128.71875 520.367188 C 130.25 521.097656 130.777344 519.089844 131.082031 517.957031 L 131.265625 516.421875 C 131.574219 517.769531 131.746094 518.957031 131.066406 520.234375 M 146.972656 501.925781 L 143.492188 500.378906 C 147.871094 500.476562 152.464844 503.683594 154.058594 507.761719 C 152.152344 505.34375 149.710938 503.351562 146.972656 501.925781 M 158.722656 519.238281 C 155.792969 519.730469 152.945312 520.863281 150.65625 522.769531 C 150.308594 522.867188 149.550781 522.292969 149.21875 522.082031 C 149.140625 521.742188 151.132812 520.503906 151.507812 520.300781 C 154.835938 518.523438 158.785156 518.359375 162.460938 518.839844 Z M 107.582031 477.65625 C 107.902344 477.8125 109.460938 477.046875 109.832031 476.84375 C 110.542969 476.453125 111.9375 475.148438 112.425781 474.980469 C 112.882812 474.828125 113.3125 474.976562 113.746094 474.902344 C 115.136719 474.664062 117.023438 473.414062 117.960938 472.367188 C 118.820312 471.40625 119.089844 470.039062 117.898438 469.304688 C 118.101562 468.402344 119.71875 469.558594 120.019531 470.046875 C 121.601562 472.617188 119.761719 476.324219 118.429688 478.6875 C 114.472656 485.703125 105.875 491.042969 112.445312 499.78125 C 112.671875 500.085938 113.460938 501.09375 113.757812 501.144531 C 114.074219 501.203125 113.914062 500.757812 114.007812 500.5 C 114.777344 498.386719 116.929688 497.3125 118.644531 496.089844 C 118.582031 495.371094 118.328125 494.671875 118.28125 493.945312 C 117.824219 487.085938 124.035156 482.003906 123.757812 475.351562 C 123.722656 474.503906 123.527344 472.761719 123.335938 471.957031 C 122.988281 470.523438 121.777344 468.886719 120.824219 467.78125 C 124.449219 469.5 124.925781 473.667969 124.648438 477.273438 C 124.351562 481.128906 121.328125 484.9375 120.324219 488.734375 C 119.957031 490.132812 119.542969 492.8125 119.808594 494.199219 C 119.851562 494.414062 119.96875 494.515625 120.125 494.648438 C 122.304688 492.230469 125.632812 491.003906 128.828125 490.554688 C 128.707031 486.976562 130.917969 484.222656 131.378906 480.691406 C 132.195312 474.414062 129.503906 470.425781 124.886719 466.707031 C 124.753906 466.601562 124.5625 466.714844 124.648438 466.378906 C 127.5 467.847656 129.832031 470.199219 131.230469 473.101562 C 133.058594 476.894531 132.6875 480.910156 131.457031 484.839844 C 131.054688 486.117188 130.191406 487.707031 130.019531 489.011719 C 129.984375 489.257812 129.945312 489.386719 130.183594 489.550781 C 133.3125 488.0625 137.835938 488.886719 139.976562 485.597656 C 140.664062 484.542969 141.273438 482.53125 141.523438 481.285156 C 143.992188 468.988281 130.71875 468.492188 123.691406 462.941406 C 123.53125 462.816406 122.476562 461.816406 122.609375 461.667969 C 128.070312 465.988281 135.894531 466.714844 140.558594 472.175781 C 143.1875 475.261719 143.652344 479.816406 142.113281 483.53125 C 142.015625 483.769531 141.125 485.28125 141.199219 485.351562 C 144.042969 484.398438 147.339844 481.152344 148.363281 478.320312 C 149.707031 474.609375 146.203125 470.785156 143.300781 468.925781 C 140.683594 467.246094 138.324219 466.695312 135.507812 465.636719 C 132.746094 464.601562 130.164062 462.859375 128.210938 460.652344 L 131.539062 462.988281 C 135.890625 465.484375 141.050781 465.902344 145.136719 469 C 147.691406 470.941406 149.28125 473.457031 149.601562 476.691406 C 151.25 475.21875 151.800781 472.828125 151.328125 470.703125 C 149.933594 464.476562 138.917969 463.050781 133.945312 460.964844 C 132.441406 460.335938 130.832031 459.558594 129.484375 458.675781 C 129.578125 458.496094 129.816406 458.679688 129.9375 458.734375 C 135.578125 461.203125 141.425781 462.046875 146.847656 464.742188 C 147.179688 464.90625 148.539062 465.804688 148.765625 465.742188 C 150.671875 462.007812 146.363281 457.832031 143.140625 456.609375 C 137.898438 454.617188 133.515625 455.296875 128.144531 455.683594 C 127.164062 455.753906 126.140625 455.738281 125.152344 455.808594 C 125.203125 455.554688 125.425781 455.605469 125.601562 455.558594 C 129.195312 454.613281 134.78125 453.984375 138.445312 454.425781 C 140.132812 454.628906 141.734375 455.246094 143.363281 455.683594 C 143.648438 453.871094 142.261719 452.738281 140.753906 452.117188 C 137.25 450.675781 132.390625 451.175781 128.792969 452.128906 C 126.757812 452.671875 124.886719 453.601562 122.863281 454.15625 L 125.855469 452.628906 C 127.703125 451.851562 129.859375 451.117188 131.855469 450.859375 C 132.351562 450.796875 135.109375 450.734375 135.214844 450.589844 C 135.058594 449.722656 134.359375 449.265625 133.605469 448.953125 C 131.964844 448.273438 128.15625 448.324219 126.421875 448.738281 C 125.617188 448.929688 125.050781 449.410156 124.328125 449.703125 C 123.199219 450.15625 122.011719 450.503906 120.886719 450.972656 C 120.679688 451.058594 119.359375 451.800781 119.296875 451.738281 C 119.152344 451.59375 119.996094 450.835938 120.128906 450.722656 C 121.679688 449.398438 123.664062 449.050781 125.609375 448.691406 C 126.035156 448.417969 127.546875 445.800781 126.746094 445.753906 C 124.417969 447.226562 121.542969 447.410156 119.011719 448.332031 C 117.871094 448.746094 116.449219 449.453125 115.390625 450.058594 C 113.429688 451.191406 111.300781 452.722656 111.664062 455.296875 C 111.8125 455.449219 113.847656 455.394531 114.078125 455.9375 C 113.105469 456.082031 112.054688 455.710938 111.097656 455.699219 C 108.679688 455.664062 107.003906 456.0625 105.222656 457.71875 C 104.539062 458.355469 104.335938 459.222656 103.984375 459.601562 C 103.890625 459.707031 102.632812 460.222656 102.320312 460.417969 C 102.007812 460.609375 100.269531 461.921875 100.21875 462.140625 C 100.101562 462.628906 101.304688 465.292969 101.5625 465.363281 C 103.015625 465.765625 102.667969 463.792969 102.363281 462.945312 C 102.679688 462.605469 103.246094 464.464844 103.242188 464.664062 C 103.234375 465.097656 102.359375 466.449219 102.375 466.554688 C 102.609375 467.097656 103.582031 467.503906 103.847656 467.824219 C 103.992188 467.992188 104.148438 468.523438 104.34375 468.792969 C 104.570312 469.09375 105.246094 469.953125 105.519531 469.476562 C 106.164062 468.355469 105.527344 467.078125 107.226562 466.722656 C 108.425781 466.476562 110.046875 466.601562 110.625 467.859375 C 111.46875 469.691406 110.519531 471.132812 108.789062 471.8125 L 107.136719 470.074219 C 106.84375 470.070312 106.886719 471.84375 107.074219 472.109375 L 106.261719 472.128906 L 106.074219 472.320312 C 106.035156 472.847656 106.027344 473.371094 106.113281 473.898438 C 106.207031 474.453125 107 476.683594 107.265625 477.203125 C 107.339844 477.351562 107.433594 477.582031 107.582031 477.65625 M 115.097656 460.777344 L 115.476562 460.777344 C 115.3125 462.429688 116.636719 463.683594 117.867188 464.566406 L 120.0625 465.234375 C 117.015625 465.535156 114.730469 464.046875 115.097656 460.777344 M 117.496094 456.214844 C 117.046875 455.511719 115.878906 457.542969 115.859375 457.976562 C 114.761719 457.734375 116.660156 455.78125 117.199219 455.804688 C 118.582031 455.863281 117.304688 458.339844 116.816406 458.863281 C 116.492188 458.625 116.726562 458.660156 116.804688 458.476562 C 117.121094 457.753906 117.699219 457.082031 117.496094 456.214844 M 119.554688 456.703125 C 119.730469 456.71875 119.777344 457.28125 119.789062 457.417969 C 119.867188 458.265625 119.589844 458.988281 120.316406 459.628906 C 118.710938 459.550781 119.78125 457.726562 119.554688 456.703125 M 119.550781 464.597656 C 119.015625 464.863281 116.851562 463.355469 117.261719 462.945312 C 118.269531 463.003906 118.9375 463.898438 119.550781 464.597656 M 115.753906 453.859375 C 116.351562 452.976562 117.074219 452.675781 118.015625 453.339844 C 119.742188 454.546875 118.320312 458.703125 117.511719 460.269531 C 116.875 459.796875 117.738281 458.726562 117.957031 458.097656 C 118.367188 456.910156 118.695312 455.292969 118.136719 454.105469 C 117.960938 453.730469 117.503906 453.273438 117.066406 453.273438 C 115.859375 453.273438 115.089844 456.675781 114.464844 457.410156 C 114.277344 457.628906 113.796875 457.597656 113.695312 457.464844 C 113.570312 457.300781 115.644531 454.367188 115.753906 453.859375 M 105.101562 468.796875 L 104.65625 467.976562 L 105.417969 467.652344 C 105.445312 467.847656 105.28125 468.800781 105.101562 468.796875 M 104.910156 461.539062 C 105.253906 460.941406 106.519531 460.71875 106.910156 460.363281 C 107.304688 460.003906 106.90625 459.15625 106.972656 458.835938 C 107.101562 458.199219 109.015625 456.703125 109.746094 456.578125 L 108.609375 457.566406 C 108.363281 457.933594 107.699219 458.800781 107.980469 459.234375 C 108.039062 459.324219 109.691406 459.628906 109.621094 460.394531 C 107.933594 460.578125 106.484375 460.929688 104.910156 461.539062 M 110.015625 463.882812 C 109.90625 463.839844 109.605469 463.730469 109.621094 463.578125 C 111.824219 463.382812 113.875 464.320312 113.949219 466.761719 C 113.601562 466.832031 113.730469 466.671875 113.640625 466.503906 C 112.761719 464.867188 111.625 464.5 110.015625 463.882812 M 108.21875 472.109375 C 108.207031 472.125 107.890625 472.191406 107.824219 472.175781 C 107.402344 472.082031 107.371094 471.464844 107.328125 471.09375 C 107.457031 470.949219 108.417969 471.828125 108.21875 472.109375 M 117.488281 478.644531 C 115.5 482.039062 112.464844 484.878906 110.675781 488.382812 C 110.167969 489.378906 109.882812 490.445312 109.429688 491.460938 C 107.332031 488.6875 107.828125 484.488281 109.769531 481.746094 C 110.472656 480.757812 111.265625 480.136719 112.113281 479.3125 C 114.015625 477.472656 116.417969 475.613281 118.15625 473.707031 C 118.78125 473.019531 119.410156 472.191406 119.808594 471.347656 C 120.035156 471.433594 119.953125 472.105469 119.9375 472.304688 C 119.820312 474.019531 118.382812 477.117188 117.488281 478.644531 M 107.964844 453.457031 C 108.320312 450.578125 111.554688 449.0625 113.863281 448.023438 C 114.382812 447.789062 118.097656 446.207031 118.277344 446.390625 C 118.351562 447.011719 118.105469 448.042969 117.582031 448.429688 C 116.925781 448.917969 115.378906 449.402344 114.5 449.933594 C 113.261719 450.679688 111.730469 451.855469 111.167969 453.21875 C 110.875 453.925781 110.882812 454.550781 110.648438 455.246094 L 107.964844 455.558594 C 108.023438 454.890625 107.882812 454.105469 107.964844 453.457031 "/>
</svg>
